<svg xmlns="http://www.w3.org/2000/svg" viewBox="0 0 247.91 49"><defs><style>.aa094e8b-f3af-4af5-9a2d-3f77e85470ae{fill:#4f3225;}.a6454855-4824-4e51-b1eb-e12fccd2433e,.aa094e8b-f3af-4af5-9a2d-3f77e85470ae,.ad54dbf2-39e5-4357-8b8b-d46164344544{fill-rule:evenodd;}.ad54dbf2-39e5-4357-8b8b-d46164344544{fill:#6993cd;}.a5933e9c-3267-4cff-9bc9-0fa59e1e789b{fill:none;stroke:#6993cd;stroke-miterlimit:3.86;stroke-width:1.33px;}.a6454855-4824-4e51-b1eb-e12fccd2433e{fill:#796863;}</style></defs><g id="afedf70c-6192-4d3a-a720-810ebdb44aa8" data-name="Layer 2"><g id="e18afdb5-6115-4bdd-a477-45594840865b" data-name="Layer 1"><path class="aa094e8b-f3af-4af5-9a2d-3f77e85470ae" d="M30.72,48.06V21c0-3.27-.79-5-3.83-5s-4.48.7-5.64,4.44L15.83,37.93c-.19.56-.7.56-.89,0L9.48,20.52c-1.17-3.74-2.62-4.44-5.65-4.44S0,18.13,0,21v27H4.3V19.86c0-1.31,1.16-.88,1.44,0l4.95,15.69c1.26,4,2.06,5.79,4.67,5.79s3.55-2.05,4.72-5.79l5-15.69c.28-.88,1.4-1.31,1.4,0v28.2Z"/><path class="aa094e8b-f3af-4af5-9a2d-3f77e85470ae" d="M57.49,30.7c0-4.77-4.62-7-9.24-7-8.17,0-11.86,6.11-11.86,12.65C36.39,43.67,41,49,48.2,49a12.19,12.19,0,0,0,8.27-2.94,9.61,9.61,0,0,0-1.55-2.43c-2.56,2.1-3.92,2.57-6,2.57-4.2,0-6.58-2.71-7.52-6C51.94,37.93,57.49,35.69,57.49,30.7Zm-4.76-.1c0,3.64-3,5.23-11.67,7.1-.89-4.86,1.59-11.07,6.72-11.07C50.35,26.63,52.73,28.13,52.73,30.6Z"/><path class="aa094e8b-f3af-4af5-9a2d-3f77e85470ae" d="M85.09,48.06a22.34,22.34,0,0,1-.93-6.49V16.08H79.72V28.69a8.19,8.19,0,0,0-7.65-4.16c-5.56,0-10.37,4.34-10.37,12s4.86,12.28,10.51,12.28a8.3,8.3,0,0,0,7.61-4.39,14,14,0,0,0,.6,3.59ZM80,36.39c0,5.18-2.28,9.67-6.77,9.67S66.32,42,66.32,36.58s2.57-9.25,6.91-9.25S80,31,80,36.39Z"/><path class="ad54dbf2-39e5-4357-8b8b-d46164344544" d="M121.81,48.06V21c0-3.27-.8-5-3.83-5s-4.48.7-5.65,4.44l-5.42,17.41c-.18.56-.7.56-.89,0l-5.46-17.41c-1.17-3.74-2.61-4.44-5.65-4.44s-3.83,2.05-3.83,5v27h4.3V19.86c0-1.31,1.17-.88,1.45,0l5,15.69c1.26,4,2,5.79,4.67,5.79s3.54-2.05,4.71-5.79l5-15.69c.28-.88,1.4-1.31,1.4,0v28.2Z"/><path class="aa094e8b-f3af-4af5-9a2d-3f77e85470ae" d="M133.5,12.24a2.45,2.45,0,0,0-2.43-2.47,2.48,2.48,0,1,0,0,5A2.46,2.46,0,0,0,133.5,12.24ZM133.31,42V18.55h-4.44V42Z"/><path class="ad54dbf2-39e5-4357-8b8b-d46164344544" d="M160.59,48.06V33.17c0-6.16-2.71-9.15-7.94-9.15-5,0-7.66,2.52-8.54,3.69V24.63h-4.44V48.06h4.44V30.79a8.45,8.45,0,0,1,6.77-3.92c3.87,0,5.37,2.47,5.37,5.83V48.06Z"/><path class="ad54dbf2-39e5-4357-8b8b-d46164344544" d="M188.8,48.06a22.34,22.34,0,0,1-.93-6.49V16.08h-4.44V28.69a8.2,8.2,0,0,0-7.66-4.16c-5.55,0-10.36,4.34-10.36,12s4.85,12.28,10.5,12.28a8.31,8.31,0,0,0,7.62-4.39,14,14,0,0,0,.6,3.59Zm-5.09-11.67c0,5.18-2.29,9.67-6.77,9.67S170,42,170,36.58s2.57-9.25,6.91-9.25S183.71,31,183.71,36.39Z"/><path class="ad54dbf2-39e5-4357-8b8b-d46164344544" d="M214,30.7c0-4.77-4.62-7-9.25-7-8.17,0-11.86,6.11-11.86,12.65,0,7.28,4.63,12.61,11.82,12.61A12.15,12.15,0,0,0,213,46.06a9.26,9.26,0,0,0-1.54-2.43c-2.57,2.1-3.92,2.57-6,2.57-4.2,0-6.58-2.71-7.51-6C208.47,37.93,214,35.69,214,30.7Zm-4.76-.1c0,3.64-3,5.23-11.68,7.1-.88-4.86,1.59-11.07,6.73-11.07C206.88,26.63,209.27,28.13,209.27,30.6Z"/><path class="ad54dbf2-39e5-4357-8b8b-d46164344544" d="M234.53,24.48a10.63,10.63,0,0,0-3.59-.65c-4.25,0-5.89,1.82-7.1,4.44a14,14,0,0,0-.61-3.64h-4.71a22.34,22.34,0,0,1,.93,6.49V48.06h4.39V35.27c0-5.79,2.8-8.64,6.07-8.64a7,7,0,0,1,3.59.94A11.17,11.17,0,0,0,234.53,24.48Z"/><line class="a5933e9c-3267-4cff-9bc9-0fa59e1e789b" x1="130.73" y1="3.46" x2="129.85" y2="0.17"/><line class="a5933e9c-3267-4cff-9bc9-0fa59e1e789b" x1="139.58" y1="7.64" x2="142.87" y2="6.76"/><line class="a5933e9c-3267-4cff-9bc9-0fa59e1e789b" x1="136.13" y1="4.09" x2="138.19" y2="0.8"/><line class="a5933e9c-3267-4cff-9bc9-0fa59e1e789b" x1="139.92" y1="13.04" x2="143.27" y2="13.63"/><path class="a6454855-4824-4e51-b1eb-e12fccd2433e" d="M241.8,22.71h-4a1.55,1.55,0,0,0,0,.48h1.64v5h.81v-5h1.54A1.29,1.29,0,0,0,241.8,22.71Z"/><path class="a6454855-4824-4e51-b1eb-e12fccd2433e" d="M247.91,28.2V23.57c0-.56-.13-.85-.65-.85s-.77.12-1,.76l-.93,3c0,.1-.12.1-.15,0l-.94-3c-.2-.64-.44-.76-1-.76s-.66.35-.66.85V28.2h.74V23.37c0-.23.2-.16.24,0l.85,2.68c.22.68.35,1,.8,1s.61-.35.81-1l.85-2.68c0-.16.24-.23.24,0V28.2Z"/></g></g></svg>